<mxfile host="app.diagrams.net" modified="2023-11-27T13:59:31.084Z" agent="Mozilla/5.0 (X11; Linux x86_64) AppleWebKit/537.36 (KHTML, like Gecko) Chrome/119.0.0.0 Safari/537.36" etag="mOKsUIBDUvavfR5Rzqt0" version="22.1.4" type="github">
  <diagram name="Page-1" id="ciXoBDTXdjDo0w0JCOVY">
    <mxGraphModel dx="1364" dy="811" grid="1" gridSize="10" guides="1" tooltips="1" connect="1" arrows="1" fold="1" page="1" pageScale="1" pageWidth="850" pageHeight="1100" math="0" shadow="0">
      <root>
        <mxCell id="0" />
        <mxCell id="1" parent="0" />
        <mxCell id="fBwZ9N9lR8raxNEhHyRU-1" value="UI" style="rounded=0;whiteSpace=wrap;html=1;" vertex="1" parent="1">
          <mxGeometry x="260" y="90" width="300" height="140" as="geometry" />
        </mxCell>
        <mxCell id="fBwZ9N9lR8raxNEhHyRU-2" value="Model" style="rounded=0;whiteSpace=wrap;html=1;" vertex="1" parent="1">
          <mxGeometry x="305" y="280" width="210" height="150" as="geometry" />
        </mxCell>
        <mxCell id="fBwZ9N9lR8raxNEhHyRU-3" value="Data Access&lt;br&gt;&lt;br&gt;Core Data" style="rounded=0;whiteSpace=wrap;html=1;" vertex="1" parent="1">
          <mxGeometry x="305" y="520" width="200" height="140" as="geometry" />
        </mxCell>
      </root>
    </mxGraphModel>
  </diagram>
</mxfile>
